<?xml version="1.0" standalone="no"?>
<!DOCTYPE svg PUBLIC "-//W3C//DTD SVG 1.0//EN" "http://www.w3.org/TR/2001/REC-SVG-20010904/DTD/svg10.dtd">
<svg xmlns="http://www.w3.org/2000/svg" xmlns:xlink="http://www.w3.org/1999/xlink" id="body_1" width="50" height="38">

<g transform="matrix(0.074218616 0 0 0.074218616 5.9999995 -0)">
    <path d="M402.585 504.018L408.606 431.759L480.864 425.737L300.218 245.092L221.939 323.372L402.585 504.018" stroke="none" fill="#FF8C29" fill-rule="nonzero" />
    <path d="M261.28 284.031L221.939 323.372L402.585 504.017L408.606 431.759L408.977 431.728L261.28 284.031" stroke="none" fill="#FD6A33" fill-rule="nonzero" />
    <path d="M109.42 504.018L103.398 431.759L31.139 425.737L211.785 245.092L290.065 323.372L109.42 504.018" stroke="none" fill="#FF8C29" fill-rule="nonzero" />
    <path d="M103.026 431.728L103.398 431.759L109.42 504.017L290.065 323.372L250.724 284.031L103.026 431.728" stroke="none" fill="#FD6A33" fill-rule="nonzero" />
    <path d="M257.235 7.985L309.927 52.198L378.711 52.198L390.655 119.937L443.347 164.151L408.956 223.721L420.9 291.46L356.264 314.986L321.871 374.554L257.235 351.028L192.599 374.554L158.206 314.986L93.571 291.46L105.515 223.721L71.122 164.151L123.814 119.937L135.759 52.198L204.543 52.198L257.235 7.985" stroke="none" fill="#4ACFD9" fill-rule="nonzero" />
    <path d="M375.225 195.723C 375.225 228.64471 363.58545 256.74512 340.30627 280.0243C 317.02713 303.30344 288.9267 314.943 256.005 314.943C 223.08333 314.943 194.98291 303.30344 171.70374 280.0243C 148.42459 256.74512 136.785 228.64471 136.785 195.723C 136.785 162.80133 148.42459 134.7009 171.70374 111.42174C 194.98291 88.142586 223.08333 76.503006 256.005 76.503006C 288.9267 76.503006 317.02713 88.142586 340.30627 111.42174C 363.58545 134.7009 375.225 162.80133 375.225 195.723C 375.225 197.11035 375.2008 198.49725 375.15237 199.88373" stroke="none" fill="#FD6A33" fill-rule="nonzero" />
    <path d="M255.566 111.215L275.567 172.769L340.289 172.769L287.928 210.812L307.928 272.366L255.566 234.323L203.205 272.366L223.205 210.812L170.844 172.769L235.566 172.769L255.566 111.215" stroke="none" fill="#E6EAEA" fill-rule="nonzero" />
    <path d="M443.347 164.151L390.655 119.937L378.711 52.198L309.927 52.198L257.235 7.985L256.002 9.019L256.002 351.478L257.235 351.028L321.872 374.554L356.264 314.986L420.9 291.46L408.956 223.721L443.347 164.151" stroke="none" fill="#4ACFD9" fill-rule="nonzero" />
    <path d="M204.543 52.198L135.759 52.198L123.814 119.937L71.122 164.151L105.515 223.721L93.571 291.46L158.206 314.986L192.599 374.554L256.002 351.478L256.002 9.019L204.543 52.198" stroke="none" fill="#0295AA" fill-rule="nonzero" />
    <path d="M136.782 195.724C 136.782 261.568 190.159 314.944 256.002 314.944L256.002 314.944L256.002 76.504C 190.158 76.504 136.782 129.881 136.782 195.724z" stroke="none" fill="#F0353D" fill-rule="nonzero" />
    <path d="M256.002 76.504L256.002 314.944C 321.846 314.944 375.22202 261.56702 375.22202 195.724C 375.22202 129.88098 321.845 76.504 256.002 76.504z" stroke="none" fill="#FF8C29" fill-rule="nonzero" />
    <path d="M287.928 210.812L340.289 172.769L275.567 172.769L256.002 112.553L256.002 234.639L307.928 272.366L287.928 210.812" stroke="none" fill="#FFFFFF" fill-rule="nonzero" />
    <path d="M255.566 111.214L235.566 172.769L170.844 172.769L223.205 210.812L203.205 272.366L255.566 234.323L256.002 234.639L256.002 112.553L255.566 111.214" stroke="none" fill="#FFD1A9" fill-rule="nonzero" />
    <path d="M486.509 420.091L380.924 314.505L423.63 298.962C 427.27002 297.637 429.435 293.889 428.76102 290.073L428.76102 290.073L417.321 225.196L450.26 168.143C 452.19702 164.78801 451.446 160.526 448.478 158.03601L448.478 158.03601L398.012 115.69101L386.572 50.81301C 385.899 46.998013 382.585 44.21701 378.71 44.21701L378.71 44.21701L312.83 44.21701L262.367 1.868C 259.398 -0.6229999 255.071 -0.6229999 252.102 1.868L252.102 1.868L201.63701 44.215L135.75801 44.215C 131.88301 44.215 128.56902 46.996 127.89601 50.811L127.89601 50.811L116.45601 115.688L65.98901 158.035C 63.021015 160.52501 62.27001 164.787 64.207016 168.142L64.207016 168.142L97.14702 225.195L85.707016 290.07202C 85.03301 293.88803 87.197014 297.635 90.83801 298.96103L90.83801 298.96103L131.73701 313.84604L25.492 420.091C 23.295 422.289 22.572 425.564 23.642 428.483C 24.711 431.402 27.377 433.434 30.475 433.693L30.475 433.693L96.002 439.155L101.464 504.681C 101.722 507.779 103.754 510.445 106.673 511.514C 107.569 511.84302 108.496994 512.002 109.418 512.002C 111.499 512.002 113.541 511.18802 115.065 509.664L115.065 509.664L256.001 368.728L396.937 509.664C 398.462 511.188 400.50302 512.002 402.584 512.002C 403.505 512.002 404.43402 511.84302 405.329 511.514C 408.24802 510.445 410.28 507.77902 410.53702 504.681L410.53702 504.681L416 439.155L481.526 433.693C 484.624 433.435 487.29 431.40298 488.359 428.483C 489.429 425.564 488.706 422.29 486.509 420.091zM112.429 219.729L81.385 165.961L128.947 126.05299C 130.38501 124.84699 131.352 123.173 131.67601 121.325L131.67601 121.325L142.45702 60.183L204.54202 60.183C 206.42003 60.183 208.23703 59.522 209.67403 58.315L209.67403 58.315L257.23404 18.406998L304.79404 58.315C 306.23203 59.522 308.04904 60.183 309.92603 60.183L309.92603 60.183L372.01202 60.183L382.79303 121.325C 383.11902 123.173 384.08502 124.848 385.52203 126.05299L385.52203 126.05299L433.08304 165.961L402.04004 219.729C 401.10104 221.354 400.76605 223.259 401.09204 225.108L401.09204 225.108L411.87405 286.249L363.68607 303.788L353.53207 307.484C 351.76907 308.127 350.2881 309.36902 349.34906 310.995L349.34906 310.995L318.30707 364.763L263.75708 344.909C 263.75308 344.90698 263.74707 344.90698 263.74307 344.905L263.74307 344.905L259.96207 343.53C 258.19907 342.887 256.26508 342.887 254.50206 343.53L254.50206 343.53L248.90205 345.568L196.16106 364.763L165.11806 310.995C 164.17906 309.37 162.69806 308.12698 160.93506 307.484L160.93506 307.484L148.97505 303.13L102.594055 286.25L113.37605 225.10901C 113.703 223.259 113.368 221.354 112.429 219.729zM111.353 431.095C 111.029 427.21 107.947 424.126 104.06 423.802L104.06 423.802L48.954998 419.209L148.293 319.87103L152.744 321.49103L185.683 378.54404C 187.143 381.07303 189.813 382.53705 192.599 382.53705C 193.509 382.53705 194.431 382.38104 195.328 382.05505L195.328 382.05505L234.255 367.88705L115.946 486.201L111.353 431.095zM407.942 423.804C 404.05698 424.128 400.973 427.21 400.649 431.097L400.649 431.097L396.05698 486.202L276.334 366.476L319.14 382.057C 320.03702 382.384 320.959 382.539 321.86902 382.539C 324.65503 382.539 327.325 381.075 328.785 378.546L328.785 378.546L361.723 321.49298L364.367 320.53098L463.047 419.21097L407.942 423.804z" stroke="none" fill="#000000" fill-rule="nonzero" />
    <path d="M256.002 322.928C 326.143 322.928 383.20602 265.86502 383.20602 195.724C 383.20602 125.58298 326.142 68.521 256.002 68.521C 185.86203 68.521 128.798 125.584 128.798 195.725C 128.798 265.86603 185.862 322.928 256.002 322.928zM256.002 84.488C 317.337 84.488 367.239 134.389 367.239 195.725C 367.239 257.061 317.338 306.962 256.002 306.962C 194.66602 306.962 144.765 257.06 144.765 195.724C 144.765 134.388 194.666 84.488 256.002 84.488z" stroke="none" fill="#000000" fill-rule="nonzero" />
    <path d="M195.614 269.899C 194.545 273.188 195.716 276.792 198.515 278.82498C 199.914 279.84198 201.56 280.34998 203.207 280.34998C 204.854 280.34998 206.5 279.84097 207.899 278.82498L207.899 278.82498L255.568 244.19298L303.236 278.82498C 306.034 280.85797 309.823 280.85797 312.62 278.82498C 315.418 276.79297 316.58798 273.189 315.521 269.899L315.521 269.899L297.313 213.85999L344.982 179.22699C 347.78 177.19499 348.94998 173.59099 347.883 170.301C 346.814 167.011 343.749 164.784 340.29 164.784L340.29 164.784L281.368 164.784L263.161 108.746C 262.092 105.456 259.027 103.229004 255.56801 103.229004C 252.11002 103.229004 249.044 105.456 247.975 108.746L247.975 108.746L229.767 164.784L170.845 164.784C 167.38701 164.784 164.321 167.011 163.252 170.301C 162.183 173.59 163.354 177.194 166.153 179.22699L166.153 179.22699L213.82199 213.85999L195.614 269.899zM195.414 180.752L235.567 180.752C 239.025 180.752 242.091 178.525 243.16 175.235L243.16 175.235L255.567 137.049L267.973 175.235C 269.042 178.525 272.107 180.752 275.56598 180.752L275.56598 180.752L315.719 180.752L283.235 204.353C 280.43698 206.385 279.266 209.989 280.33398 213.27899L280.33398 213.27899L292.741 251.465L260.258 227.866C 257.46 225.833 253.67099 225.833 250.874 227.866L250.874 227.866L218.38998 251.466L230.79698 213.279C 231.86598 209.99 230.69498 206.386 227.89598 204.35301L227.89598 204.35301L195.414 180.752z" stroke="none" fill="#000000" fill-rule="nonzero" />
	<g>
	</g>
	<g>
	</g>
	<g>
	</g>
	<g>
	</g>
	<g>
	</g>
	<g>
	</g>
	<g>
	</g>
	<g>
	</g>
	<g>
	</g>
	<g>
	</g>
	<g>
	</g>
	<g>
	</g>
	<g>
	</g>
	<g>
	</g>
	<g>
	</g>
</g>
</svg>